<mxfile host="app.diagrams.net" modified="2024-04-30T01:28:26.257Z" agent="Mozilla/5.0 (Windows NT 10.0; Win64; x64) AppleWebKit/537.36 (KHTML, like Gecko) Chrome/124.0.0.0 Safari/537.36" etag="SlHYLbtF5zaGiD-STFcP" version="24.3.0" type="google">
  <diagram name="Page-1" id="2YBvvXClWsGukQMizWep">
    <mxGraphModel grid="1" page="1" gridSize="10" guides="1" tooltips="1" connect="1" arrows="1" fold="1" pageScale="1" pageWidth="850" pageHeight="1100" math="0" shadow="0">
      <root>
        <mxCell id="0" />
        <mxCell id="1" parent="0" />
        <mxCell id="aM9ryv3xv72pqoxQDRHE-7" value="1: print():void" style="html=1;verticalAlign=bottom;endArrow=block;edgeStyle=elbowEdgeStyle;elbow=vertical;curved=0;rounded=0;" edge="1" parent="1" target="JpHwbhn30bgNmc1Mi3vN-1">
          <mxGeometry relative="1" as="geometry">
            <mxPoint x="95" y="90" as="sourcePoint" />
            <Array as="points">
              <mxPoint x="180" y="90" />
            </Array>
            <mxPoint x="265" y="90" as="targetPoint" />
          </mxGeometry>
        </mxCell>
        <mxCell id="JpHwbhn30bgNmc1Mi3vN-1" value="c: Combo" style="shape=umlLifeline;perimeter=lifelinePerimeter;whiteSpace=wrap;html=1;container=1;dropTarget=0;collapsible=0;recursiveResize=0;outlineConnect=0;portConstraint=eastwest;newEdgeStyle={&quot;curved&quot;:0,&quot;rounded&quot;:0};" vertex="1" parent="1">
          <mxGeometry x="220" y="30" width="100" height="300" as="geometry" />
        </mxCell>
        <mxCell id="JpHwbhn30bgNmc1Mi3vN-2" value="componente: List&amp;lt;Componente&amp;gt;" style="shape=umlLifeline;perimeter=lifelinePerimeter;whiteSpace=wrap;html=1;container=1;dropTarget=0;collapsible=0;recursiveResize=0;outlineConnect=0;portConstraint=eastwest;newEdgeStyle={&quot;curved&quot;:0,&quot;rounded&quot;:0};" vertex="1" parent="1">
          <mxGeometry x="470" y="30" width="190" height="300" as="geometry" />
        </mxCell>
        <mxCell id="JpHwbhn30bgNmc1Mi3vN-3" value="2:getElemento(i)" style="html=1;verticalAlign=bottom;endArrow=block;curved=0;rounded=0;" edge="1" parent="1">
          <mxGeometry width="80" relative="1" as="geometry">
            <mxPoint x="269.81034482758605" y="150" as="sourcePoint" />
            <mxPoint x="555" y="150" as="targetPoint" />
          </mxGeometry>
        </mxCell>
        <mxCell id="JpHwbhn30bgNmc1Mi3vN-4" value="loop&lt;div&gt;for&lt;/div&gt;" style="shape=umlFrame;whiteSpace=wrap;html=1;pointerEvents=0;" vertex="1" parent="1">
          <mxGeometry x="210" y="112.5" width="620" height="135" as="geometry" />
        </mxCell>
        <mxCell id="vMLLLaxY-SDY54dVP0O2-1" value="" style="html=1;points=[[0,0,0,0,5],[0,1,0,0,-5],[1,0,0,0,5],[1,1,0,0,-5]];perimeter=orthogonalPerimeter;outlineConnect=0;targetShapes=umlLifeline;portConstraint=eastwest;newEdgeStyle={&quot;curved&quot;:0,&quot;rounded&quot;:0};" vertex="1" parent="1">
          <mxGeometry x="555" y="150" width="10" height="30" as="geometry" />
        </mxCell>
        <mxCell id="vMLLLaxY-SDY54dVP0O2-2" value="3: return Ticket" style="html=1;verticalAlign=bottom;endArrow=open;dashed=1;endSize=8;curved=0;rounded=0;exitX=0;exitY=1;exitDx=0;exitDy=-5;exitPerimeter=0;entryX=0.5;entryY=0;entryDx=0;entryDy=0;entryPerimeter=0;" edge="1" parent="1" target="Ng6xyR1c0DD58rqVvpda-1">
          <mxGeometry x="0.0175" y="1" relative="1" as="geometry">
            <mxPoint x="555" y="179.31" as="sourcePoint" />
            <mxPoint x="280" y="180" as="targetPoint" />
            <mxPoint as="offset" />
          </mxGeometry>
        </mxCell>
        <mxCell id="vMLLLaxY-SDY54dVP0O2-3" value="ticket:Ticket" style="shape=umlLifeline;perimeter=lifelinePerimeter;whiteSpace=wrap;html=1;container=1;dropTarget=0;collapsible=0;recursiveResize=0;outlineConnect=0;portConstraint=eastwest;newEdgeStyle={&quot;curved&quot;:0,&quot;rounded&quot;:0};" vertex="1" parent="1">
          <mxGeometry x="740" y="30" width="140" height="300" as="geometry" />
        </mxCell>
        <mxCell id="uLyOKWEb3GNLdwwwbRWH-3" value="" style="html=1;points=[[0,0,0,0,5],[0,1,0,0,-5],[1,0,0,0,5],[1,1,0,0,-5]];perimeter=orthogonalPerimeter;outlineConnect=0;targetShapes=umlLifeline;portConstraint=eastwest;newEdgeStyle={&quot;curved&quot;:0,&quot;rounded&quot;:0};" vertex="1" parent="vMLLLaxY-SDY54dVP0O2-3">
          <mxGeometry x="65" y="180" width="10" height="30" as="geometry" />
        </mxCell>
        <mxCell id="vMLLLaxY-SDY54dVP0O2-4" value="4: print():void" style="html=1;verticalAlign=bottom;endArrow=block;curved=0;rounded=0;" edge="1" parent="1" target="vMLLLaxY-SDY54dVP0O2-3">
          <mxGeometry width="80" relative="1" as="geometry">
            <mxPoint x="270" y="210" as="sourcePoint" />
            <mxPoint x="350" y="210" as="targetPoint" />
          </mxGeometry>
        </mxCell>
        <mxCell id="Ng6xyR1c0DD58rqVvpda-1" value="" style="html=1;points=[[0,0,0,0,5],[0,1,0,0,-5],[1,0,0,0,5],[1,1,0,0,-5]];perimeter=orthogonalPerimeter;outlineConnect=0;targetShapes=umlLifeline;portConstraint=eastwest;newEdgeStyle={&quot;curved&quot;:0,&quot;rounded&quot;:0};" vertex="1" parent="1">
          <mxGeometry x="265" y="180" width="10" height="30" as="geometry" />
        </mxCell>
        <mxCell id="uLyOKWEb3GNLdwwwbRWH-5" value="5: print():void" style="html=1;verticalAlign=bottom;endArrow=block;curved=0;rounded=0;" edge="1" parent="1" source="uLyOKWEb3GNLdwwwbRWH-3">
          <mxGeometry width="80" relative="1" as="geometry">
            <mxPoint x="830" y="230" as="sourcePoint" />
            <mxPoint x="985" y="230" as="targetPoint" />
          </mxGeometry>
        </mxCell>
        <mxCell id="uLyOKWEb3GNLdwwwbRWH-6" value="item:List&amp;lt;Item&amp;gt;" style="shape=umlLifeline;perimeter=lifelinePerimeter;whiteSpace=wrap;html=1;container=1;dropTarget=0;collapsible=0;recursiveResize=0;outlineConnect=0;portConstraint=eastwest;newEdgeStyle={&quot;curved&quot;:0,&quot;rounded&quot;:0};" vertex="1" parent="1">
          <mxGeometry x="940" y="30" width="100" height="300" as="geometry" />
        </mxCell>
        <mxCell id="uLyOKWEb3GNLdwwwbRWH-7" value="loop&lt;div&gt;for&lt;/div&gt;" style="shape=umlFrame;whiteSpace=wrap;html=1;pointerEvents=0;" vertex="1" parent="1">
          <mxGeometry x="750" y="160" width="290" height="135" as="geometry" />
        </mxCell>
        <mxCell id="uLyOKWEb3GNLdwwwbRWH-8" value="" style="html=1;points=[[0,0,0,0,5],[0,1,0,0,-5],[1,0,0,0,5],[1,1,0,0,-5]];perimeter=orthogonalPerimeter;outlineConnect=0;targetShapes=umlLifeline;portConstraint=eastwest;newEdgeStyle={&quot;curved&quot;:0,&quot;rounded&quot;:0};" vertex="1" parent="1">
          <mxGeometry x="985" y="230" width="10" height="30" as="geometry" />
        </mxCell>
      </root>
    </mxGraphModel>
  </diagram>
</mxfile>
